PathFileType	4	(x/y/z)	S04_M20_T19.trc
DataRate	CameraRate	NumFrames	NumMarkers	Units	OrigDataRate	OrigDataStartFrame	OrigNumFrames
240	240	8	51	mm	240	67	532
Frame#	Time	Sternum			R.Acromium			L.Acromium			Top.Head			R.ASIS			L.ASIS			R.PSIS			L.PSIS			R.Great.Tro			L.Great.Tro			R.Iliac.Crest			L.Iliac.Crest			V.Sacral			R.Thigh.Upper.Post			R.Thigh.Lower.Ant			R.Thigh.Lower.Post			R.Thigh.Upper.Ant			R.Knee.Lat			R.Knee.Med			R.Shank.Upper.Post			R.Shank.Lower.Ant			R.Shank.Lower.Post			R.Shank.Upper.Ant			R.Ankle.Lat			R.Ankle.Med			R.Heel.Upper			R.Heel.Med			R.Heel.Lat			R.Toe.Lat			R.Toe.Med			R.Toe.Tip			L.Thigh.Upper.Post			L.Thigh.Lower.Ant			L.Thigh.Lower.Post			L.Thigh.Upper.Ant			L.Knee.Lat			L.Knee.Med			L.Shank.Upper.Post			L.Shank.Lower.Ant			L.Shank.Lower.Post			L.Shank.Upper.Ant			L.Ankle.Lat			L.Ankle.Med			L.Heel.Upper			L.Heel.Med			L.Heel.Lat			L.Toe.Lat			L.Toe.Med			L.Toe.Tip			Cervical.Spine			Back			
		X1	Y1	Z1	X2	Y2	Z2	X3	Y3	Z3	X4	Y4	Z4	X5	Y5	Z5	X6	Y6	Z6	X7	Y7	Z7	X8	Y8	Z8	X9	Y9	Z9	X10	Y10	Z10	X11	Y11	Z11	X12	Y12	Z12	X13	Y13	Z13	X14	Y14	Z14	X15	Y15	Z15	X16	Y16	Z16	X17	Y17	Z17	X18	Y18	Z18	X19	Y19	Z19	X20	Y20	Z20	X21	Y21	Z21	X22	Y22	Z22	X23	Y23	Z23	X24	Y24	Z24	X25	Y25	Z25	X26	Y26	Z26	X27	Y27	Z27	X28	Y28	Z28	X29	Y29	Z29	X30	Y30	Z30	X31	Y31	Z31	X32	Y32	Z32	X33	Y33	Z33	X34	Y34	Z34	X35	Y35	Z35	X36	Y36	Z36	X37	Y37	Z37	X38	Y38	Z38	X39	Y39	Z39	X40	Y40	Z40	X41	Y41	Z41	X42	Y42	Z42	X43	Y43	Z43	X44	Y44	Z44	X45	Y45	Z45	X46	Y46	Z46	X47	Y47	Z47	X48	Y48	Z48	X49	Y49	Z49	X50	Y50	Z50	X51	Y51	Z51	

67	0.275	-381.07	1269.6	273.23	-512.68	1499.1	442.88	-525.81	1474.6	93.522	-518.31	1818.7	245.5	-412.77	977.71	421.57	-389.69	1005.2	172.13	-616.67	1021.5	302.63	-602.13	1029.5	223.3	-508.95	895.49	470.63	-493.48	920.05	93.645	-503.5	1073.6	457.14	-495.88	1078.8	114.11	-630.85	984.02	259.83	-494.92	632.84	461.89	-411.54	554.09	441.71	-488.28	542.71	448.95	-411.4	664.07	459.12	-474.29	478.2	444.23	-475.57	474.88	307.38	-687.9	395.01	424.96	-709.47	293.06	390.89	-743.75	353.47	409.71	-655.98	337.98	414.88	-830.51	278.47	389.42	-797.31	262.03	305.51	-882.47	312.74	324.98	-898.85	289.2	293.26	-911.96	294.06	355.72	-840.27	147.8	423.79	-803.54	113.72	312.1	-761.37	72.869	368.13	-455.55	675.78	116.51	-355.24	604.1	138.41	-427.49	593.97	137.23	-388.31	684.77	114.3	-369.18	513.07	156.24	-379.16	506.68	281.18	-446.92	328.11	156.4	-374.27	245.12	170.97	-438.67	251.4	168.69	-382.21	320.54	158.86	-395.79	98.046	189.84	-397.52	109.43	284.42	-474.96	68.505	236.85	-467.97	44.897	271.75	-470.64	39.389	210.05	-285.56	41.222	175.5	-257.26	51.674	291.54	-199.81	64.096	243.8	-572.14	1537.6	273.15	-642.58	1277.2	260.23
68	0.27917	-376.53	1270.4	273.05	-508.19	1499.8	442.8	-521.42	1475.5	93.465	-513.65	1819.5	245.62	-407.68	978.78	421.23	-385.25	1005.9	171.62	-611.85	1022.2	302.87	-597.51	1030.2	223.5	-503.37	896.47	470.68	-489.46	920.64	93.61	-498.46	1074.5	457.01	-491.44	1079.7	113.97	-626.14	984.78	260.1	-486.63	633.85	462.11	-402.54	555.95	441.58	-479.14	543.79	449.09	-403.43	665.9	459.11	-464.55	479.51	444.16	-465.92	476.34	307.3	-677.7	395.37	424.94	-698.74	293.2	391.25	-733.33	353.51	409.82	-645.49	338.46	415.09	-819.69	277.95	389.8	-786.49	261.44	305.92	-872.09	311.44	325.24	-888.43	287.52	293.7	-901.39	292.63	356.11	-828.1	147.36	424.61	-791.25	113.17	313.02	-748.57	73.045	369.13	-452.78	676.3	116.51	-352.91	603.9	138.33	-425.21	594.32	137.09	-385.43	684.83	114.24	-367.46	512.93	156.2	-377.7	506.53	281.04	-445.95	328.25	156.44	-373.56	245.04	171.02	-437.94	251.52	168.78	-381.27	320.47	158.9	-395.64	98.136	190	-397.34	109.45	284.59	-474.91	68.591	236.95	-467.93	44.922	271.79	-470.59	39.531	210.09	-285.51	41.179	175.45	-257.16	51.346	291.57	-199.73	63.687	243.79	-567.62	1538.4	273.12	-638	1278	260.09
69	0.28333	-372.01	1271.3	272.88	-503.69	1500.6	442.74	-517.05	1476.4	93.412	-509	1820.3	245.77	-402.6	979.83	420.89	-380.83	1006.6	171.11	-607.04	1023	303.11	-592.91	1031	223.71	-497.8	897.44	470.74	-485.48	921.23	93.586	-493.43	1075.4	456.88	-487.01	1080.5	113.83	-621.44	985.53	260.39	-478.36	634.9	462.35	-393.58	557.85	441.45	-470.04	544.92	449.23	-395.48	667.76	459.1	-454.86	480.85	444.1	-456.39	477.84	307.22	-667.51	395.61	424.94	-687.93	293.22	391.61	-722.89	353.38	409.94	-634.97	338.84	415.31	-808.79	277.19	390.19	-775.58	260.68	306.34	-861.65	309.9	325.55	-877.91	285.6	294.16	-890.75	290.93	356.53	-815.76	146.67	425.36	-778.77	112.47	313.87	-735.54	73.069	370.02	-450.08	676.84	116.52	-350.66	603.7	138.24	-423.01	594.67	136.97	-382.61	684.9	114.18	-365.81	512.8	156.16	-376.33	506.38	280.88	-445.04	328.39	156.49	-372.89	244.96	171.05	-437.26	251.63	168.87	-380.37	320.41	158.94	-395.51	98.223	190.15	-397.16	109.47	284.77	-474.87	68.678	237.04	-467.9	44.945	271.83	-470.54	39.672	210.13	-285.46	41.138	175.4	-257.06	51.033	291.6	-199.64	63.295	243.78	-563.11	1539.1	273.09	-633.43	1278.7	259.96
70	0.2875	-367.49	1272.2	272.71	-499.21	1501.4	442.67	-512.68	1477.3	93.362	-504.35	1821.1	245.94	-397.52	980.88	420.55	-376.42	1007.3	170.6	-602.24	1023.8	303.36	-588.33	1031.7	223.94	-492.24	898.42	470.81	-481.52	921.81	93.573	-488.4	1076.3	456.75	-482.59	1081.3	113.7	-616.74	986.27	260.69	-470.11	635.98	462.62	-384.67	559.79	441.3	-460.97	546.09	449.39	-387.58	669.65	459.08	-445.23	482.22	444.04	-446.98	479.39	307.15	-657.32	395.72	424.97	-677.06	293.13	391.97	-712.43	353.1	410.07	-624.41	339.13	415.53	-797.8	276.2	390.61	-764.59	259.75	306.75	-851.15	308.11	325.9	-867.29	283.45	294.64	-880.01	288.96	356.99	-803.25	145.74	426.06	-766.09	111.62	314.66	-722.29	72.95	370.83	-447.44	677.39	116.54	-348.47	603.5	138.14	-420.86	595.03	136.84	-379.84	684.97	114.11	-364.23	512.67	156.09	-375.03	506.23	280.73	-444.18	328.52	156.54	-372.27	244.9	171.08	-436.61	251.74	168.97	-379.53	320.36	158.97	-395.38	98.308	190.3	-396.99	109.49	284.93	-474.83	68.764	237.13	-467.87	44.964	271.87	-470.49	39.812	210.16	-285.42	41.1	175.35	-256.96	50.736	291.62	-199.57	62.92	243.77	-558.62	1539.9	273.06	-628.87	1279.4	259.84
71	0.29167	-362.98	1273	272.54	-494.73	1502.1	442.61	-508.32	1478.1	93.315	-499.72	1821.8	246.12	-392.44	981.92	420.2	-372.04	1008	170.09	-597.45	1024.5	303.63	-583.76	1032.4	224.18	-486.69	899.4	470.88	-477.59	922.38	93.57	-483.37	1077.2	456.63	-478.17	1082.1	113.57	-612.06	986.99	260.99	-461.9	637.1	462.89	-375.82	561.76	441.14	-451.94	547.29	449.57	-379.71	671.55	459.05	-435.65	483.62	443.97	-437.69	480.98	307.07	-647.15	395.72	425.02	-666.12	292.92	392.33	-701.93	352.66	410.22	-613.82	339.33	415.75	-786.73	274.99	391.03	-753.5	258.67	307.17	-840.58	306.1	326.29	-856.57	281.09	295.13	-869.19	286.73	357.49	-790.57	144.58	426.71	-753.22	110.63	315.39	-708.82	72.699	371.56	-444.86	677.95	116.57	-346.35	603.3	138.03	-418.79	595.39	136.72	-377.13	685.03	114.03	-362.72	512.55	156.02	-373.79	506.08	280.57	-443.37	328.66	156.6	-371.7	244.83	171.09	-436.02	251.86	169.06	-378.74	320.31	158.99	-395.25	98.389	190.44	-396.83	109.51	285.09	-474.79	68.849	237.22	-467.84	44.981	271.89	-470.44	39.95	210.2	-285.38	41.063	175.31	-256.87	50.453	291.64	-199.49	62.563	243.75	-554.12	1540.7	273.04	-624.32	1280.1	259.72
72	0.29583	-358.48	1273.9	272.38	-490.25	1502.8	442.55	-503.97	1479	93.272	-495.1	1822.6	246.32	-387.37	982.94	419.85	-367.67	1008.6	169.58	-592.67	1025.3	303.9	-579.21	1033.1	224.43	-481.14	900.37	470.97	-473.69	922.94	93.578	-478.34	1078	456.52	-473.76	1082.9	113.46	-607.39	987.7	261.3	-453.71	638.24	463.19	-367.01	563.75	440.98	-442.95	548.53	449.75	-371.87	673.48	459.01	-426.14	485.05	443.92	-428.52	482.6	307	-636.98	395.61	425.09	-655.11	292.59	392.68	-691.42	352.07	410.38	-603.2	339.45	415.98	-775.58	273.57	391.46	-742.32	257.43	307.57	-829.94	303.85	326.71	-845.73	278.51	295.62	-858.28	284.24	358.02	-777.73	143.22	427.31	-740.15	109.51	316.06	-695.15	72.324	372.22	-442.35	678.52	116.62	-344.3	603.09	137.9	-416.77	595.75	136.61	-374.48	685.1	113.96	-361.28	512.42	155.93	-372.59	505.94	280.41	-442.61	328.8	156.67	-371.16	244.77	171.09	-435.46	251.97	169.16	-378	320.27	159.01	-395.13	98.468	190.58	-396.68	109.53	285.25	-474.75	68.933	237.3	-467.82	44.995	271.92	-470.39	40.085	210.24	-285.34	41.029	175.27	-256.77	50.186	291.67	-199.42	62.224	243.74	-549.64	1541.4	273.02	-619.78	1280.8	259.62
73	0.3	-353.98	1274.7	272.22	-485.78	1503.5	442.5	-499.63	1479.8	93.232	-490.49	1823.3	246.54	-382.31	983.95	419.5	-363.32	1009.2	169.07	-587.91	1026	304.19	-574.68	1033.7	224.7	-475.6	901.34	471.06	-469.81	923.49	93.595	-473.3	1078.9	456.41	-469.36	1083.6	113.35	-602.72	988.39	261.62	-445.55	639.41	463.49	-358.26	565.76	440.8	-434.01	549.8	449.95	-364.07	675.42	458.95	-416.68	486.51	443.86	-419.47	484.23	306.93	-626.82	395.38	425.19	-644.04	292.15	393.03	-680.87	351.32	410.56	-592.56	339.48	416.2	-764.34	271.95	391.89	-731.06	256.04	307.98	-819.23	301.38	327.15	-834.79	275.72	296.12	-847.27	281.51	358.56	-764.72	141.66	427.87	-726.9	108.27	316.69	-681.27	71.837	372.81	-439.88	679.11	116.68	-342.31	602.89	137.76	-414.81	596.11	136.5	-371.88	685.16	113.88	-359.9	512.3	155.83	-371.42	505.8	280.25	-441.91	328.94	156.75	-370.67	244.72	171.09	-434.94	252.09	169.26	-377.3	320.23	159.01	-395.02	98.544	190.71	-396.54	109.55	285.4	-474.72	69.017	237.38	-467.8	45.007	271.94	-470.34	40.218	210.27	-285.3	40.997	175.23	-256.68	49.935	291.69	-199.36	61.903	243.71	-545.15	1542.1	273.01	-615.25	1281.4	259.53
74	0.30417	-349.49	1275.5	272.06	-481.31	1504.2	442.46	-495.29	1480.6	93.195	-485.89	1824.1	246.77	-377.24	984.93	419.14	-358.99	1009.8	168.56	-583.15	1026.7	304.48	-570.16	1034.4	224.98	-470.06	902.3	471.16	-465.96	924.03	93.622	-468.26	1079.7	456.31	-464.96	1084.3	113.25	-598.07	989.07	261.96	-437.42	640.61	463.81	-349.56	567.79	440.6	-425.11	551.1	450.16	-356.31	677.38	458.89	-407.28	487.98	443.81	-410.52	485.89	306.87	-616.66	395.03	425.32	-632.9	291.6	393.36	-670.3	350.43	410.74	-581.88	339.42	416.42	-753.02	270.13	392.32	-719.71	254.5	308.37	-808.44	298.7	327.6	-823.74	272.73	296.61	-836.16	278.54	359.13	-751.54	139.92	428.4	-713.46	106.91	317.28	-667.2	71.249	373.35	-437.47	679.69	116.75	-340.37	602.68	137.61	-412.91	596.47	136.41	-369.35	685.22	113.79	-358.57	512.19	155.72	-370.28	505.68	280.09	-441.24	329.09	156.83	-370.21	244.67	171.07	-434.46	252.21	169.37	-376.65	320.21	159.01	-394.92	98.618	190.84	-396.41	109.57	285.54	-474.69	69.099	237.46	-467.79	45.018	271.95	-470.29	40.348	210.31	-285.26	40.967	175.2	-256.6	49.7	291.71	-199.3	61.599	243.69	-540.67	1542.8	273	-610.72	1282.1	259.45
